HIERARCHY
ROOT Hips
{
	OFFSET 0.00000 0.00000 0.00000
	CHANNELS 6 Xposition Yposition Zposition Zrotation Yrotation Xrotation 
	JOINT LHipJoint
	{
		OFFSET 0 0 0
		CHANNELS 3 Zrotation Yrotation Xrotation
		JOINT LeftHip
		{
			OFFSET 1.53927 -1.56553 0.51726
			CHANNELS 3 Zrotation Yrotation Xrotation
			JOINT LeftKnee
			{
				OFFSET 2.38199 -6.54447 0.00000
				CHANNELS 3 Zrotation Yrotation Xrotation
				JOINT LeftAnkle
				{
					OFFSET 2.35499 -6.47028 0.00000
					CHANNELS 3 Zrotation Yrotation Xrotation
					JOINT LeftToe
					{
						OFFSET 0.13641 -0.37478 1.84251
						CHANNELS 3 Zrotation Yrotation Xrotation
						End Site
						{
							OFFSET 0.00000 -0.00000 0.95212
						}
					}
				}
			}
		}
	}
	JOINT RHipJoint
	{
		OFFSET 0 0 0
		CHANNELS 3 Zrotation Yrotation Xrotation
		JOINT RightHip
		{
			OFFSET -1.43919 -1.56553 0.51726
			CHANNELS 3 Zrotation Yrotation Xrotation
			JOINT RightKnee
			{
				OFFSET -2.34860 -6.45274 0.00000
				CHANNELS 3 Zrotation Yrotation Xrotation
				JOINT RightAnkle
				{
					OFFSET -2.25563 -6.19730 0.00000
					CHANNELS 3 Zrotation Yrotation Xrotation
					JOINT RightToe
					{
						OFFSET -0.19755 -0.54277 1.84912
						CHANNELS 3 Zrotation Yrotation Xrotation
						End Site
						{
							OFFSET -0.00000 -0.00000 0.97032
						}
					}
				}
			}
		}
	}
	JOINT lowerback
	{
		OFFSET 0 0 0
		CHANNELS 3 Zrotation Yrotation Xrotation
		JOINT Chest
		{
			OFFSET -0.06402 1.88434 -0.00445
			CHANNELS 3 Zrotation Yrotation Xrotation
			JOINT Chest2
			{
				OFFSET 0.00756 1.88511 0.04237
				CHANNELS 3 Zrotation Yrotation Xrotation
				JOINT lowerneck
				{
					OFFSET 0 0 0
					CHANNELS 3 Zrotation Yrotation Xrotation
					JOINT Neck
					{
						OFFSET -0.06230 1.34710 0.03308
						CHANNELS 3 Zrotation Yrotation Xrotation
						JOINT Head
						{
							OFFSET -0.02442 1.34501 -0.13654
							CHANNELS 3 Zrotation Yrotation Xrotation
							End Site
							{
								OFFSET -0.00508 1.35584 -0.05075
							}
						}
					}
				}
				JOINT LeftCollar
				{
					OFFSET 0 0 0
					CHANNELS 3 Zrotation Yrotation Xrotation
					JOINT LeftShoulder
					{
						OFFSET 2.76911 0.54460 0.39412
CHANNELS 3 Zrotation Xrotation Yrotation
						JOINT LeftElbow
						{
OFFSET 0 -4.409190 -0.000000
CHANNELS 3 Zrotation Xrotation Yrotation
							JOINT LeftWrist
							{
OFFSET 0 -3.038570 -0.000000
CHANNELS 3 Zrotation Xrotation Yrotation
								JOINT lhand
								{
									OFFSET 0 0 0
CHANNELS 3 Zrotation Xrotation Yrotation
									JOINT LFingers
									{
OFFSET 0 -0.523210 -0.000000
CHANNELS 3 Zrotation Xrotation Yrotation
										End Site
										{
OFFSET 0 -0.421820 -0.000000
										}
									}
								}
								JOINT LThumb
								{
OFFSET 0 0.000000 0.000000
CHANNELS 3 Zrotation Xrotation Yrotation
									End Site
									{
OFFSET 0 -0.428260 0.428260
									}
								}
							}
						}
					}
				}
				JOINT RightCollar
				{
					OFFSET 0 0 0
					CHANNELS 3 Zrotation Yrotation Xrotation
					JOINT RightShoulder
					{
						OFFSET -2.99050 0.75949 0.48975
CHANNELS 3 Zrotation Xrotation Yrotation
						JOINT RightElbow
						{
OFFSET 0 -4.619690 -0.000000
CHANNELS 3 Zrotation Xrotation Yrotation
							JOINT RightWrist
							{
OFFSET 0 -3.093820 -0.000000
CHANNELS 3 Zrotation Xrotation Yrotation
								JOINT rhand
								{
									OFFSET 0 0 0
CHANNELS 3 Zrotation Xrotation Yrotation
									JOINT RFingers
									{
OFFSET 0 -0.500900 -0.000000
CHANNELS 3 Zrotation Xrotation Yrotation
										End Site
										{
OFFSET 0 -0.403840 -0.000000
										}
									}
								}
								JOINT RThumb
								{
OFFSET 0 0.000000 0.000000
CHANNELS 3 Zrotation Xrotation Yrotation
									End Site
									{
OFFSET 0 -0.410000 0.410000
									}
								}
							}
						}
					}
				}
			}
		}
	}
}
MOTION
Frames: 5
Frame Time: 0.008333333333333333
2.439900 16.279500 -0.585800 125.785000 -88.263000 -118.224000 0.000000 0.000000 0.000000 -20.422400 -24.680100 -0.935700 1.188200 6.917300 19.470600 -1.491200 23.904000 -21.475200 1.053500 6.526700 18.320400 0.000000 0.000000 0.000000 17.180400 20.892300 -2.104900 -0.932000 -6.149600 17.219000 -0.595400 -10.637100 -22.070200 -0.431300 -4.214500 11.681000 -2.695900 0.209700 -5.278600 0.104100 0.183500 -5.812200 1.625800 0.118400 -3.051300 -0.772600 -0.712200 -3.602300 -3.608600 -0.754200 20.987700 -1.116900 -0.945500 6.978000 0.000000 -0.000000 0.000000 -4.436400 18.653100 -8.276400 19.851200 -30.462700 5.455700 23.097800 10.412700 13.709700 0.000000 0.000000 0.000000 -7.125000 0.000000 0.000000 -2.943100 15.139600 -2.075100 0.000000 -0.000000 0.000000 -0.218800 15.491400 15.856000 -15.888800 -25.369600 -3.598200 -16.546200 22.355600 48.071100 0.000000 0.000000 0.000000 7.125000 0.000000 -0.000000 46.263700 75.279400 -34.543400
2.433836 16.279634 -0.587662 129.109813 -88.371732 -121.639598 0.000000 0.000000 0.000000 -20.283013 -24.589616 -0.890388 1.203526 6.960131 19.597434 -1.415098 23.654805 -21.775138 1.168657 6.861889 19.306972 0.000000 0.000000 0.000000 17.395579 20.677818 -1.970371 -0.916257 -6.098917 17.071734 -0.561415 -10.689557 -21.800178 -0.366812 -3.890364 10.768451 -2.549288 0.257813 -5.316401 0.116802 0.250494 -5.721302 1.558491 0.146299 -2.936941 -0.766782 -0.756328 -3.769511 -3.593044 -0.811194 21.075394 -1.119300 -0.972871 7.035304 0.000000 0.000000 0.000000 -4.315451 18.532395 -8.448246 19.732362 -30.318538 5.395561 23.198929 10.456762 13.738931 0.000000 0.000000 0.000000 -7.125000 0.000000 0.000000 -2.875612 15.096875 -2.029946 0.000000 0.000000 0.000000 -0.157503 15.495571 15.694893 -15.897526 -25.381407 -3.601954 -16.465273 22.500451 47.670925 0.000000 0.000000 0.000000 7.125000 0.000000 0.000000 45.086222 75.004219 -33.354978
2.429648 16.279466 -0.587100 129.270112 -88.381169 -121.849454 0.000000 0.000000 0.000000 -20.269301 -24.375622 -0.930607 1.208454 6.973941 19.638181 -1.378511 23.453385 -21.715664 1.101151 6.667674 18.734532 0.000000 0.000000 0.000000 17.411542 20.540927 -1.921226 -0.910561 -6.080573 17.018412 -0.573347 -10.557215 -21.783578 -0.400143 -4.061126 11.248787 -2.525730 0.219797 -5.380640 0.132108 0.204858 -5.651253 1.560215 0.121984 -2.825649 -0.713377 -0.712790 -3.833621 -3.646423 -0.742365 21.025618 -1.140466 -0.938250 7.030911 0.000000 0.000000 0.000000 -4.428886 18.549573 -8.250431 19.820572 -30.425563 5.440157 23.030142 10.281929 13.826986 0.000000 0.000000 0.000000 -7.125000 0.000000 0.000000 -2.996018 15.021252 -2.120078 0.000000 0.000000 0.000000 -0.240621 15.426676 15.948678 -15.859885 -25.330224 -3.585793 -16.049421 21.838233 48.092806 0.000000 0.000000 0.000000 7.125000 0.000000 0.000000 46.779065 75.099908 -34.804509
2.429786 16.278391 -0.598324 119.531020 -88.550709 -112.072290 0.000000 0.000000 0.000000 -20.049183 -23.987319 -1.213904 1.199610 6.949190 19.565037 -1.291363 22.873763 -21.348824 1.070068 6.574785 18.462080 0.000000 0.000000 0.000000 17.553598 20.881273 -1.769296 -0.914981 -6.094808 17.059670 -0.542059 -11.146157 -22.076265 -0.381878 -3.968353 10.987770 -2.700416 0.143088 -5.314803 0.173595 0.103165 -5.725359 1.697977 0.079325 -2.936766 -0.606618 -0.728069 -3.906272 -3.833227 -0.739951 21.191744 -1.222001 -0.950339 7.096256 0.000000 0.000000 0.000000 -4.448516 18.660248 -8.177927 19.820020 -30.424940 5.439907 22.837925 10.060858 13.940608 0.000000 0.000000 0.000000 -7.125000 0.000000 0.000000 -3.133712 14.921066 -2.224555 0.000000 0.000000 0.000000 -0.277728 15.562156 15.961067 -15.881434 -25.359557 -3.595017 -18.098968 22.921664 46.824037 0.000000 0.000000 0.000000 7.125000 0.000000 0.000000 40.952949 75.093678 -30.136252
2.426286 16.278705 -0.600527 113.109868 -88.550654 -105.696097 0.000000 0.000000 0.000000 -20.063511 -23.737799 -1.248358 1.190582 6.924005 19.490395 -1.238649 22.501794 -21.096279 1.052590 6.523266 18.310676 0.000000 0.000000 0.000000 17.531559 20.914493 -1.683669 -0.921650 -6.116332 17.122313 -0.566195 -11.172039 -22.328407 -0.427289 -4.194526 11.624662 -2.773507 0.129127 -5.171414 0.119230 0.077876 -5.800321 1.682168 0.070168 -3.094390 -0.673023 -0.719830 -3.767346 -3.630281 -0.762662 21.075462 -1.143681 -0.945118 7.034777 0.000000 0.000000 0.000000 -4.400999 18.856352 -8.229176 19.975089 -30.612313 5.518652 22.849195 10.604099 12.691767 0.000000 0.000000 0.000000 -7.125000 0.000000 0.000000 -3.060792 16.259537 -2.084447 0.000000 0.000000 0.000000 -0.190060 15.868877 15.913421 -16.021419 -25.549656 -3.655228 -17.022815 22.296763 47.382560 0.000000 0.000000 0.000000 7.125000 0.000000 0.000000 43.686413 75.039265 -32.263818
